<svg width="22" height="18" viewBox="0 0 22 18" fill="none" xmlns="http://www.w3.org/2000/svg">
<g id="noun-call-1950637 1">
<path id="Vector" d="M12.0516 2.59178V2.59258C11.7839 2.606 11.5411 2.75341 11.4058 2.98481C11.2705 3.2161 11.261 3.50016 11.3806 3.74006C11.5001 3.97985 11.7328 4.14322 11.999 4.17432C14.4354 4.50263 16.295 6.49299 16.459 8.94601V8.94614C16.4626 9.1636 16.5552 9.37016 16.7154 9.51743C16.8756 9.66471 17.089 9.73981 17.3061 9.72532C17.5231 9.7107 17.7248 9.60769 17.8638 9.44034C18.0027 9.27299 18.0671 9.05593 18.0415 8.83982C17.8278 5.6431 15.3851 3.02892 12.2099 2.6012H12.2098C12.1575 2.59295 12.1045 2.59003 12.0516 2.59229L12.0516 2.59178ZM7.48545 3.33307C6.09576 3.3328 4.86573 4.46755 4.96237 5.88555C5.1462 8.58064 6.05391 11.1673 7.94285 13.0507C9.84135 14.9439 12.7227 15.9723 15.1281 16.0367C16.529 16.0742 17.6604 14.9025 17.6605 13.5136C17.6597 13.0546 17.5342 12.6054 17.2968 12.2126C17.2346 12.1078 17.1276 12.0375 17.0068 12.0218L14.3806 11.6845C14.2584 11.6693 14.1361 11.7117 14.0494 11.7993L13.1174 12.7314C11.9966 12.3774 10.8317 11.7776 10.023 10.9728C9.21603 10.1651 8.62095 9.00321 8.26526 7.88135L9.20276 6.94321C9.29102 6.85575 9.33315 6.73213 9.31667 6.60905L8.97401 3.98906C8.95899 3.8689 8.88987 3.76203 8.78633 3.69903C8.39396 3.46097 7.94415 3.33442 7.48532 3.33309L7.48545 3.33307ZM12.1098 5.61649C11.8598 5.60972 11.6212 5.72124 11.4658 5.91729C11.3105 6.11335 11.2567 6.37108 11.3205 6.61299C11.3844 6.85477 11.5584 7.05242 11.7903 7.14627C12.6449 7.51394 13.2949 8.23542 13.5697 9.12426H13.5698C13.6278 9.33055 13.7667 9.50455 13.9547 9.60691C14.1429 9.70939 14.3645 9.73146 14.5691 9.66818C14.7738 9.60491 14.9442 9.46163 15.0418 9.27088C15.1393 9.08014 15.1557 8.85816 15.0872 8.65518C14.6754 7.32307 13.6985 6.23817 12.4177 5.68705C12.3208 5.64319 12.2161 5.61915 12.1098 5.61649Z" fill="#0057FF"/>
</g>
</svg>
